<svg width="51" height="54" viewBox="0 0 51 54" fill="none" xmlns="http://www.w3.org/2000/svg">
<path fill-rule="evenodd" clip-rule="evenodd" d="M24.7088 39.515C32.3489 39.515 38.5424 33.2675 38.5424 25.5607C38.5424 17.854 32.3489 11.6065 24.7088 11.6065C17.0687 11.6065 10.8752 17.854 10.8752 25.5607C10.8752 33.2675 17.0687 39.515 24.7088 39.515ZM24.7088 50.4851C28.0719 50.4851 31.2782 49.8073 34.2005 48.5798C35.5479 51.4098 38.4158 53.3636 41.7361 53.3636C46.3503 53.3636 50.0909 49.5904 50.0909 44.936C50.0909 41.9475 48.5489 39.3224 46.2237 37.826C48.2569 34.2048 49.4176 30.0195 49.4176 25.5607C49.4176 11.7954 38.3551 0.636353 24.7088 0.636353C11.0625 0.636353 0 11.7954 0 25.5607C0 39.3261 11.0625 50.4851 24.7088 50.4851ZM46.2237 37.826C43.5269 42.6291 39.2951 46.4398 34.2005 48.5798C33.6755 47.477 33.3814 46.2411 33.3814 44.936C33.3814 40.2815 37.122 36.5083 41.7362 36.5083C43.3878 36.5083 44.9275 36.9917 46.2237 37.826Z" fill="#333333"/>
<path fill-rule="evenodd" clip-rule="evenodd" d="M44.8268 40.0346C45.3293 39.3252 45.7958 38.5881 46.2237 37.826C48.5042 39.2936 50.0312 41.8468 50.0892 44.7637C50.0903 44.821 50.0909 44.8784 50.0909 44.936C50.0909 49.5904 46.3503 53.3636 41.7361 53.3636C41.3397 53.3636 40.9498 53.3358 40.5681 53.2819C37.7528 52.8846 35.3872 51.0721 34.2007 48.5801C34.2006 48.58 34.2006 48.5799 34.2005 48.5798C35.0077 48.2407 35.7932 47.8597 36.5544 47.4395C37.8628 46.7172 39.0993 45.8789 40.2503 44.9384C40.2513 44.9376 40.2523 44.9368 40.2533 44.936C40.3034 44.895 40.3534 44.8538 40.4032 44.8125C40.8749 44.4207 41.332 44.0116 41.7735 43.5862C42.8976 42.5031 43.9206 41.3139 44.8267 40.0348C44.8267 40.0347 44.8268 40.0347 44.8268 40.0346ZM27.329 50.3466C29.7398 50.0903 32.0472 49.4843 34.2005 48.5798C34.2005 48.5797 34.2004 48.5796 34.2004 48.5795C34.0737 48.3133 33.9604 48.0393 33.8615 47.7585C33.8614 47.7584 33.8614 47.7582 33.8613 47.7581C33.5506 46.8758 33.3814 45.9258 33.3814 44.936C33.3814 44.8539 33.3826 44.7722 33.3849 44.6907C33.4247 43.2829 33.8069 41.9615 34.4504 40.8082C34.5646 40.6035 34.6871 40.4041 34.8173 40.2105C35.6004 39.0461 36.6648 38.0897 37.9121 37.4409C39.0579 36.8448 40.3581 36.5083 41.7362 36.5083C41.9916 36.5083 42.2445 36.5198 42.4941 36.5425C43.552 36.6385 44.553 36.9333 45.4601 37.3897C45.7228 37.5219 45.9777 37.6676 46.2237 37.826C47.3792 35.768 48.2529 33.5279 48.7918 31.1589C49.2013 29.3594 49.4176 27.4855 49.4176 25.5607C49.4176 11.7954 38.3551 0.636353 24.7088 0.636353C11.0625 0.636353 0 11.7954 0 25.5607C0 39.3261 11.0625 50.4851 24.7088 50.4851C25.5938 50.4851 26.468 50.4382 27.329 50.3466ZM37.8505 29.9305C38.2995 28.5559 38.5424 27.0869 38.5424 25.5607C38.5424 17.854 32.3489 11.6065 24.7088 11.6065C17.0687 11.6065 10.8752 17.854 10.8752 25.5607C10.8752 33.2675 17.0687 39.515 24.7088 39.515C25.6415 39.515 26.5528 39.4219 27.4338 39.2444C32.3398 38.2557 36.3093 34.6495 37.8505 29.9305Z" fill="#333333"/>
</svg>
