<svg width="258" height="50" viewBox="0 0 258 50" fill="none" xmlns="http://www.w3.org/2000/svg">
<path d="M21.3274 49.7273C34.2406 49.7273 42.4144 42.5791 42.4144 28.0079V0.858796H31.8365V28.4203C31.8365 36.0496 27.9214 39.9673 21.4648 39.9673C15.0081 39.9673 11.093 35.9121 11.093 28.0767V0.858796H0.515137V28.3516C0.515137 42.5104 8.41417 49.7273 21.3274 49.7273Z" fill="#333333"/>
<path d="M50.0708 48.9712H60.8547L65.2507 38.1803H85.5822L89.9781 48.9712H101.037L80.4306 0.515137H70.677L50.0708 48.9712ZM69.0285 28.8327L75.4164 13.2306L81.8044 28.8327H69.0285Z" fill="#333333"/>
<path d="M111.205 48.9712H129.957C145.068 48.9712 155.508 38.4552 155.508 24.915C155.508 11.2373 145.068 0.858796 129.957 0.858796H111.205V48.9712ZM121.783 39.4175V10.4125H129.957C138.611 10.4125 144.45 16.3922 144.45 24.915C144.45 33.5752 138.611 39.4175 129.957 39.4175H121.783Z" fill="#333333"/>
<path d="M167.682 48.9712H204.292V39.5549H178.191V29.4513H200.858V20.035H178.191V10.2751H203.949V0.858796H167.682V48.9712Z" fill="#333333"/>
<path d="M216.444 48.9712H227.022V33.5752H235.196L245.636 48.9712H258L246.255 31.7882C252.368 29.52 256.558 24.6401 256.558 16.8734C256.558 12.1996 255.115 8.41932 252.436 5.73877C249.277 2.5771 244.537 0.858796 238.424 0.858796H216.444V48.9712ZM227.022 24.2277V10.4125H237.531C242.683 10.4125 245.842 12.7494 245.842 17.2857C245.842 21.4784 242.889 24.2277 237.737 24.2277H227.022Z" fill="#333333"/>
</svg>
