<svg width="56" height="58" viewBox="0 0 56 58" fill="none" xmlns="http://www.w3.org/2000/svg">
<path fill-rule="evenodd" clip-rule="evenodd" d="M27.1797 42.7665C35.5837 42.7665 42.3966 35.8942 42.3966 27.4168C42.3966 18.9394 35.5837 12.0671 27.1797 12.0671C18.7756 12.0671 11.9627 18.9394 11.9627 27.4168C11.9627 35.8942 18.7756 42.7665 27.1797 42.7665ZM27.1797 54.8337C30.8791 54.8337 34.406 54.0881 37.6206 52.7378C39.1026 55.8508 42.2574 58 45.9098 58C50.9854 58 55.1 53.8495 55.1 48.7296C55.1 45.4423 53.4038 42.5546 50.8461 40.9086C53.0826 36.9253 54.3593 32.3214 54.3593 27.4168C54.3593 12.2749 42.1906 0 27.1797 0C12.1687 0 0 12.2749 0 27.4168C0 42.5587 12.1687 54.8337 27.1797 54.8337ZM50.8461 40.9086C47.8796 46.1921 43.2246 50.3838 37.6206 52.7378C37.0431 51.5247 36.7195 50.1652 36.7195 48.7296C36.7195 43.6096 40.8341 39.4591 45.9098 39.4591C47.7266 39.4591 49.4202 39.9909 50.8461 40.9086Z" fill="white"/>
<path fill-rule="evenodd" clip-rule="evenodd" d="M49.3095 43.3381C49.8622 42.5577 50.3754 41.7469 50.8461 40.9086C53.3546 42.5229 55.0344 45.3315 55.0981 48.5401C55.0994 48.6031 55.1 48.6663 55.1 48.7296C55.1 53.8495 50.9854 58 45.9098 58C45.4737 58 45.0447 57.9694 44.6249 57.9101C41.5281 57.4731 38.9259 55.4793 37.6208 52.7382C37.6207 52.738 37.6206 52.7379 37.6206 52.7378C38.5085 52.3648 39.3726 51.9457 40.2099 51.4835C41.6491 50.6889 43.0092 49.7668 44.2753 48.7323C44.2764 48.7314 44.2775 48.7305 44.2786 48.7296C44.3338 48.6845 44.3887 48.6392 44.4435 48.5937C44.9624 48.1628 45.4652 47.7128 45.9508 47.2449C47.1874 46.0534 48.3127 44.7454 49.3093 43.3383C49.3094 43.3382 49.3094 43.3381 49.3095 43.3381ZM30.0619 54.6813C32.7137 54.3994 35.2519 53.7327 37.6206 52.7378C37.6205 52.7377 37.6205 52.7375 37.6204 52.7374C37.481 52.4446 37.3564 52.1432 37.2476 51.8343C37.2476 51.8342 37.2475 51.8341 37.2475 51.834C36.9056 50.8634 36.7195 49.8184 36.7195 48.7296C36.7195 48.6393 36.7208 48.5494 36.7233 48.4598C36.7672 46.9112 37.1876 45.4576 37.8954 44.1891C38.0211 43.9639 38.1558 43.7446 38.299 43.5316C39.1605 42.2507 40.3313 41.1987 41.7033 40.485C42.9637 39.8293 44.3939 39.4591 45.9098 39.4591C46.1908 39.4591 46.4689 39.4718 46.7435 39.4968C47.9072 39.6023 49.0083 39.9267 50.0062 40.4287C50.2951 40.5741 50.5754 40.7344 50.8461 40.9086C52.1171 38.6448 53.0782 36.1807 53.671 33.5748C54.1214 31.5953 54.3593 29.5341 54.3593 27.4168C54.3593 12.2749 42.1906 0 27.1797 0C12.1687 0 0 12.2749 0 27.4168C0 42.5587 12.1687 54.8337 27.1797 54.8337C28.1532 54.8337 29.1148 54.782 30.0619 54.6813ZM41.6356 32.2235C42.1294 30.7115 42.3966 29.0956 42.3966 27.4168C42.3966 18.9394 35.5837 12.0671 27.1797 12.0671C18.7756 12.0671 11.9627 18.9394 11.9627 27.4168C11.9627 35.8942 18.7756 42.7665 27.1797 42.7665C28.2057 42.7665 29.208 42.6641 30.1771 42.4688C35.5738 41.3813 39.9403 37.4145 41.6356 32.2235Z" fill="white"/>
</svg>
