<svg width="24" height="24" viewBox="0 0 24 24" fill="none" xmlns="http://www.w3.org/2000/svg">
<g opacity="0.4">
<path d="M6.99305 12C6.99305 14.761 9.23905 17.007 12 17.007C14.761 17.007 17.007 14.761 17.007 12C17.007 9.239 14.761 6.993 12 6.993C9.23905 6.993 6.99305 9.239 6.99305 12ZM12 8.993C13.658 8.993 15.007 10.342 15.007 12C15.007 13.658 13.658 15.007 12 15.007C10.342 15.007 8.99305 13.658 8.99305 12C8.99305 10.342 10.342 8.993 12 8.993ZM10.998 19H12.998V22H10.998V19ZM10.998 2H12.998V5H10.998V2ZM1.99805 11H4.99805V13H1.99805V11ZM18.998 11H21.998V13H18.998V11Z" fill="white"/>
<path d="M4.21899 18.363L6.33899 16.241L7.75399 17.655L5.63399 19.777L4.21899 18.363Z" fill="white"/>
<path d="M16.24 6.34398L18.362 4.22198L19.776 5.63598L17.654 7.75798L16.24 6.34398Z" fill="white"/>
<path d="M6.34197 7.75902L4.21997 5.63702L5.63497 4.22302L7.75497 6.34502L6.34197 7.75902Z" fill="white"/>
<path d="M19.776 18.364L18.362 19.778L16.24 17.656L17.654 16.242L19.776 18.364Z" fill="white"/>
</g>
</svg>
